<mxfile host="app.diagrams.net" modified="2023-03-24T07:11:23.585Z" agent="5.0 (Windows NT 10.0; Win64; x64) AppleWebKit/537.36 (KHTML, like Gecko) Chrome/111.0.0.0 Safari/537.36 Edg/111.0.1661.44" etag="7IWh1pxvbtiCP3tdfL0W" version="20.8.22" type="github">
  <diagram name="第 1 页" id="OC6zWv6rkQsIWijxGc4i">
    <mxGraphModel dx="880" dy="494" grid="1" gridSize="10" guides="1" tooltips="1" connect="1" arrows="1" fold="1" page="1" pageScale="1" pageWidth="827" pageHeight="1169" math="0" shadow="0">
      <root>
        <mxCell id="0" />
        <mxCell id="1" parent="0" />
        <mxCell id="ueY1F9eZoJBqvIHBOEkV-4" value="" style="edgeStyle=orthogonalEdgeStyle;rounded=0;orthogonalLoop=1;jettySize=auto;html=1;" edge="1" parent="1" source="ueY1F9eZoJBqvIHBOEkV-1" target="ueY1F9eZoJBqvIHBOEkV-3">
          <mxGeometry relative="1" as="geometry" />
        </mxCell>
        <mxCell id="ueY1F9eZoJBqvIHBOEkV-1" value="" style="shape=note;whiteSpace=wrap;html=1;backgroundOutline=1;darkOpacity=0.05;" vertex="1" parent="1">
          <mxGeometry x="160" y="30" width="80" height="100" as="geometry" />
        </mxCell>
        <mxCell id="ueY1F9eZoJBqvIHBOEkV-2" value="&lt;font style=&quot;font-size: 18px;&quot;&gt;pdfData&lt;/font&gt;" style="text;html=1;strokeColor=none;fillColor=none;align=center;verticalAlign=middle;whiteSpace=wrap;rounded=0;" vertex="1" parent="1">
          <mxGeometry x="160" y="140" width="60" height="30" as="geometry" />
        </mxCell>
        <mxCell id="ueY1F9eZoJBqvIHBOEkV-8" value="" style="edgeStyle=orthogonalEdgeStyle;rounded=0;orthogonalLoop=1;jettySize=auto;html=1;" edge="1" parent="1" source="ueY1F9eZoJBqvIHBOEkV-3" target="ueY1F9eZoJBqvIHBOEkV-7">
          <mxGeometry relative="1" as="geometry" />
        </mxCell>
        <mxCell id="ueY1F9eZoJBqvIHBOEkV-3" value="SCAN" style="shape=tape;whiteSpace=wrap;html=1;" vertex="1" parent="1">
          <mxGeometry x="300" y="30" width="120" height="100" as="geometry" />
        </mxCell>
        <mxCell id="ueY1F9eZoJBqvIHBOEkV-7" value="1.data quality" style="whiteSpace=wrap;html=1;" vertex="1" parent="1">
          <mxGeometry x="300" y="230" width="120" height="60" as="geometry" />
        </mxCell>
      </root>
    </mxGraphModel>
  </diagram>
</mxfile>
